<svg id="Calque_1" data-name="Calque 1" xmlns="http://www.w3.org/2000/svg" viewBox="0 0 500.65 272.29"><defs><style>.cls-1{fill:#174949;}</style></defs><path class="cls-1" d="M423.39,163.67a312.1,312.1,0,0,0-70.32-33.78c-6.23-1.92-12.41-4-18.75-5.53-6.28-1.76-12.67-3.07-19-4.49q-19.19-3.8-38.67-5.69c-13-1.28-26-1.84-39-2.08s-26.08-.46-39.12-.36-26.06.51-39,1.55c-6.49.52-13,1.26-19.4,2.13s-12.84,2.06-19.2,3.42-12.61,3.09-18.79,5.06A176.83,176.83,0,0,0,83.92,131,142.8,142.8,0,0,0,67,140.41a123.14,123.14,0,0,0-15.19,12,120.11,120.11,0,0,0-12.9,14.42,171.24,171.24,0,0,0-10.67,16.23A139.28,139.28,0,0,0,13.3,218.74a89.77,89.77,0,0,0-2.65,19.06,67.36,67.36,0,0,0,2.31,19,68.9,68.9,0,0,0,7.89,17.43c3.36,5.49,7.28,10.68,11,16.06s7.4,11,9.84,17.24l.85,2.37a19.54,19.54,0,0,1,.76,2.39l.63,2.44c.1.41.21.82.3,1.23l.2,1.24a54.42,54.42,0,0,1,.78,10,56.53,56.53,0,0,1-4,19.57,76.92,76.92,0,0,1-9.75,17.36L30,361.69a777.75,777.75,0,0,1,86.43-5.18q21.67-.06,43.32,1.27c14.42.88,28.8,2.32,43.13,4.05s28.6,3.71,42.88,5.48,28.6,3.21,42.92,4.73c28.64,2.93,57.3,5.8,86,6.49,7.18.22,14.35.16,21.51.06s14.32-.53,21.44-1.18,14.2-1.64,21.2-3a136.5,136.5,0,0,0,20.5-5.79A86.41,86.41,0,0,0,478.19,359a64.27,64.27,0,0,0,15.18-14.53,65.37,65.37,0,0,0,9.45-18.82,88.19,88.19,0,0,0,3.57-20.95c.66-14.26-1.43-28.6-5-42.46s-8.64-27.47-15.89-39.86a124.3,124.3,0,0,0-12.39-17.58,141.09,141.09,0,0,0-15-15.45C447.35,179.72,435.43,171.56,423.39,163.67Zm.22-.34c12.09,7.81,24.1,15.89,34.94,25.45a141,141,0,0,1,15.2,15.42,125.07,125.07,0,0,1,12.6,17.61c7.47,12.41,12.7,26.05,16.58,40s6.17,28.4,5.72,43a90.19,90.19,0,0,1-3.37,21.6,67.79,67.79,0,0,1-9.58,19.77A66.86,66.86,0,0,1,480,361.59a88.41,88.41,0,0,1-19.43,10.22,140.46,140.46,0,0,1-21,6.12c-7.14,1.45-14.34,2.48-21.55,3.24s-14.47,1.13-21.71,1.37-14.47.21-21.7,0c-14.46-.3-28.88-1.2-43.27-2.34s-28.75-2.53-43.08-4.08-28.65-3.05-43-4.85-28.57-3.86-42.85-5.64-28.56-3.29-42.9-4.23S130.85,360,116.48,360a764.11,764.11,0,0,0-86.08,4.79l-3.52.4L29,362.3a73.7,73.7,0,0,0,9.43-16.62,53.62,53.62,0,0,0,3.9-18.54,48.14,48.14,0,0,0-3.25-18.58c-2.28-5.94-5.79-11.37-9.47-16.7S22,281.28,18.52,275.63a71.8,71.8,0,0,1-8.11-18.14,69.31,69.31,0,0,1-2.34-19.74,91.84,91.84,0,0,1,2.8-19.62,141.46,141.46,0,0,1,15.32-36.25,172.11,172.11,0,0,1,10.87-16.42,122.58,122.58,0,0,1,13.22-14.67A125.87,125.87,0,0,1,65.8,138.61a146.31,146.31,0,0,1,17.25-9.53A175.25,175.25,0,0,1,101.41,122c6.26-2,12.62-3.6,19-5s12.87-2.43,19.36-3.3,13-1.53,19.51-2c13-1,26.11-1.29,39.17-1.28s26.1.31,39.15.63,26.1,1,39.09,2.35,25.91,3.32,38.7,5.92a379,379,0,0,1,37.8,10.19A312.92,312.92,0,0,1,423.61,163.33Z" transform="translate(-8.05 -110.41)"/></svg>