<svg id="Calque_1" data-name="Calque 1" xmlns="http://www.w3.org/2000/svg" viewBox="0 0 512 424"><defs><style>.cls-1{fill:#fff;}.cls-2{fill:#ce634e;}</style></defs><g id="_6" data-name="6"><path class="cls-1" d="M0,69.19v286.6c0,39.57,37.94,71.65,84.75,71.65H355c46.78,0,77-27.6,77-67.17V271.09l80-58.6L432,153.9V64.72c0-39.56-30.23-67.17-77-67.17H84.75C37.94-2.45,0,29.63,0,69.19Z"/></g><path class="cls-2" d="M150.82,115.54a18,18,0,0,0,18-18c0-6.63-8-21.52-13.33-30.71a5.4,5.4,0,0,0-9.35,0C140.81,76,132.81,90.9,132.81,97.53A18,18,0,0,0,150.82,115.54Z"/><path class="cls-2" d="M222.21,115.54a18,18,0,0,0,18-18c0-6.63-8-21.52-13.33-30.71a5.4,5.4,0,0,0-9.35,0C212.2,76,204.2,90.9,204.2,97.53A18,18,0,0,0,222.21,115.54Z"/><path class="cls-2" d="M293.6,115.54a18,18,0,0,0,18-18c0-6.63-8-21.52-13.33-30.71a5.4,5.4,0,0,0-9.35,0C283.59,76,275.59,90.9,275.59,97.53a18,18,0,0,0,18,18Z"/><path class="cls-2" d="M140.91,130.34a8,8,0,0,0-8,8v64.35h35.78V138.32a8,8,0,0,0-8-8Z"/><path class="cls-2" d="M212.29,130.34a8,8,0,0,0-8,8v64.35h35.77V138.32a8,8,0,0,0-8-8Z"/><path class="cls-2" d="M283.68,130.34a8,8,0,0,0-8,8v64.35h35.77V138.32a8,8,0,0,0-8-8Z"/><path class="cls-2" d="M110.1,271.63a15.3,15.3,0,0,0,4.39-.64l22.37-6.62a79.93,79.93,0,0,1,45.12,0l17.66,5.23a80,80,0,0,0,45.13,0l17.66-5.23a80,80,0,0,1,45.13,0L329.93,271a15.18,15.18,0,0,0,4.38.64c7.16,0,13.47-5,13.47-11.66V237.12c0-7.58-7.1-13.72-15.87-13.72H112.5c-8.76,0-15.86,6.14-15.86,13.72V260c0,6.65,6.3,11.66,13.46,11.66Z"/><path class="cls-2" d="M364.59,343.14H340.4V288.79a32.93,32.93,0,0,1-15.5-.8l-22.38-6.62a62.23,62.23,0,0,0-35.06,0L249.8,286.6a97.89,97.89,0,0,1-55.19,0L177,281.37a62.23,62.23,0,0,0-35.06,0L119.52,288a33,33,0,0,1-15.51.8v54.35H79.82a8.86,8.86,0,1,0,0,17.72H364.59a8.86,8.86,0,1,0,0-17.72Z"/></svg>