<svg id="Calque_1" data-name="Calque 1" xmlns="http://www.w3.org/2000/svg" viewBox="0 0 512 424"><defs><style>.cls-1{fill:#fff;}.cls-2{fill:#ce634e;}</style></defs><g id="_6" data-name="6"><path class="cls-1" d="M0,68.66v286.6c0,39.57,37.94,71.64,84.75,71.64H355c46.78,0,77-27.59,77-67.16V270.56L512,212l-80-58.6V64.19C432,24.63,401.76-3,355-3H84.75C37.94-3,0,29.1,0,68.66Z"/></g><path class="cls-2" d="M360.09,354.1h.07V249.83c0-51-11-90.29-70.6-90.29-28.67,0-47.9,15.73-55.76,30.64H233V164.3H176.44V354.09h58.87v-94c0-24.74,4.69-48.67,35.33-48.67,30.19,0,30.64,28.24,30.64,50.26v92.4Z"/><path class="cls-2" d="M80.58,164.31h58.94V354.1H80.58Z"/><path class="cls-2" d="M110,69.83A34.14,34.14,0,0,0,75.89,104c0,18.85,15.29,34.46,34.14,34.46s34.13-15.61,34.13-34.46A34.15,34.15,0,0,0,110,69.83Z"/></svg>