<svg id="Calque_1" data-name="Calque 1" xmlns="http://www.w3.org/2000/svg" viewBox="0 0 512 424"><defs><style>.cls-1{fill:#fff;}.cls-2{fill:#ce634e;}</style></defs><g id="_6" data-name="6"><path class="cls-1" d="M0,70.34V353.66c0,39.11,37.94,70.82,84.75,70.82H355c46.78,0,77-27.28,77-66.4V269.93L512,212l-80-57.93V65.92c0-39.11-30.23-66.4-77-66.4H84.75C37.94-.48,0,31.23,0,70.34Z"/></g><path class="cls-2" d="M362.09,120.12,269.9,212l92.19,91.88a26.47,26.47,0,0,0,2.68-11.48V131.6A26.47,26.47,0,0,0,362.09,120.12Z"/><path class="cls-2" d="M338.05,104.8H87.5a26.2,26.2,0,0,0-11.44,2.69l117.83,117.6a26.68,26.68,0,0,0,37.78,0L349.5,107.49A26.27,26.27,0,0,0,338.05,104.8Z"/><path class="cls-2" d="M63.46,120.12a26.61,26.61,0,0,0-2.68,11.48V292.4a26.61,26.61,0,0,0,2.68,11.48L155.65,212Z"/><path class="cls-2" d="M257.3,224.63l-13,13.09a44.49,44.49,0,0,1-63,0l-13-13.09L76.06,316.51A26.2,26.2,0,0,0,87.5,319.2H338.05a26.27,26.27,0,0,0,11.45-2.69Z"/></svg>