<svg id="Calque_1" data-name="Calque 1" xmlns="http://www.w3.org/2000/svg" viewBox="0 0 512 424"><defs><style>.cls-1{fill:#fff;}.cls-2{fill:#ce634e;}</style></defs><g id="_6" data-name="6"><path class="cls-1" d="M3.5,70.66V353.34c0,39,37.42,70.66,83.59,70.66H353.63c46.14,0,75.95-27.22,75.95-66.25V269.8L508.5,212l-78.92-57.8V66.25c0-39-29.81-66.25-76-66.25H87.09C40.92,0,3.5,31.64,3.5,70.66Z"/></g><path class="cls-2" d="M381.27,306.9l-65.12-65.12c-8.14-8.14-19.53-8.14-27.67,0l-27.67,27.68C225,306.9,137.08,219,172.9,183.17l27.67-27.67c8.14-8.14,8.14-19.53,0-27.67L135.45,62.71c-8.14-8.14-19.53-8.14-27.67,0L88.24,82.24c-34.18,34.19-1.62,122.1,74.89,197,74.88,74.89,162.79,109.07,197,74.89l21.16-19.54C389.41,326.43,389.41,315,381.27,306.9Z"/></svg>